<svg width="110" height="47" viewBox="0 0 110 47" fill="none" xmlns="http://www.w3.org/2000/svg">
  <path d="M76.9336 31.9848C77.2847 30.8532 77.7976 29.7972 77.8151 28.7328C77.9005 23.5409 77.8538 18.3466 77.8538 13.1531V11.8236H85.1369V12.9406C85.1369 17.9213 85.2238 22.9041 85.0987 27.8815C85.04 30.2243 84.8029 32.5728 83.6582 34.758C82.1908 37.5586 79.9609 39.2299 76.9824 39.8179C74.2946 40.3487 71.6031 40.3132 68.9564 39.3513C65.4542 38.0784 63.6 35.4234 62.8139 31.902C62.5523 30.7303 62.5515 29.4831 62.5457 28.2697C62.5194 22.8234 62.5342 17.3767 62.5342 11.8402H69.5661V13.149C69.5661 18.2145 69.5172 23.2814 69.6031 28.3456C69.6226 29.5076 70.0051 30.6984 70.4014 31.8093C70.8259 32.9994 71.8199 33.6224 73.0605 33.7079C74.5885 33.8137 76.0571 33.6987 76.9336 31.9848ZM89.1552 35.5039C89.1552 27.9714 89.1778 20.5661 89.1311 13.161C89.124 12.0307 89.4485 11.6979 90.5508 11.7255C93.4361 11.798 96.33 11.6343 99.2104 11.7789C102.928 11.9653 106.488 12.9511 108.407 16.5116C111.396 22.0586 109.503 29.5558 102.261 31.1362C100.421 31.5375 98.5127 31.6149 96.5056 31.8568V39.5873C94.1976 39.5873 91.9984 39.6128 89.8016 39.5482C89.5784 39.5416 89.2097 39.0057 89.1853 38.693C89.106 37.6782 89.1554 36.6526 89.1552 35.5039ZM101.015 24.768C102.194 23.6568 102.624 21.0583 101.987 19.6741C101.32 18.2258 98.3997 17.4932 96.4905 18.0638V25.7741C98.0079 25.4336 99.4128 25.1182 101.015 24.768Z" fill="#45D6FC"/>
  <path d="M0 14.0617C0.00627854 13.3408 0.0100457 12.7457 0.0223516 12.151C0.0238584 12.0726 0.0695662 11.9952 0.149178 11.75C1.87527 11.75 3.65989 11.6874 5.43822 11.7648C8.00062 11.8764 10.5899 11.8925 13.1101 12.3084C16.3822 12.8484 19.5953 15.7721 20.137 19.6371C20.5208 22.3771 20.3171 24.8985 18.8062 27.2253C17.0585 29.917 14.4366 31.066 11.4021 31.4118C10.0072 31.5707 8.60486 31.6594 7.03196 31.7947V39.5237H0V14.0617ZM11.9134 24.534C13.1912 23.395 13.4378 20.9441 12.3316 19.2261C11.6183 18.1188 9.15537 17.5389 7.09475 18.0769V25.5386C8.74098 25.4467 10.3335 25.5425 11.9134 24.534ZM40.9356 20.7479C40.8602 20.2248 40.7851 19.8177 40.6864 19.282H47.6727C47.6292 23.9705 48.6009 28.4853 51.1332 32.6543C52.9547 28.3308 53.1883 23.8183 53.2922 19.2271H60.0861C59.886 21.0299 59.8058 22.8211 59.4718 24.5624C58.4874 29.6928 56.7851 34.5716 54.0005 38.9926C51.5975 42.8075 48.5042 45.7652 43.9942 46.8748C42.9623 47.1287 42.5504 46.9037 42.4271 45.8286C42.2563 44.3389 41.9698 42.8632 41.7176 41.2869C43.8611 40.7441 45.9237 39.9725 47.5479 38.0565C43.7587 32.9787 41.2146 27.3601 40.9356 20.7479ZM24.8856 39.0869C21.4126 37.2383 21.4131 35.1517 21.6374 32.3319C21.8106 30.1513 23.9529 28.0942 26.5459 27.6278C28.3303 27.3067 30.1747 27.332 32.002 27.2018C32.2443 25.7844 31.4505 24.5376 30.0436 24.5593C28.2245 24.5876 26.4088 24.8689 24.5935 25.0605C24.3203 25.0893 24.0579 25.2237 23.7743 25.3144C23.3996 23.6964 23.0159 22.1625 22.712 20.6126C22.659 20.3408 22.8873 19.7724 23.0764 19.7262C27.3892 18.6733 31.7121 17.541 35.8382 20.4067C37.5806 21.6167 38.4837 23.4193 38.6158 25.3792C38.8915 29.4795 38.8546 33.6022 38.9028 37.7162C38.9066 38.0445 38.6449 38.5873 38.3885 38.6756C34.3798 40.058 30.3035 40.7278 26.1094 39.5993C25.7176 39.4938 25.355 39.2757 24.8859 39.0869H24.8856ZM31.0089 31.6739C30.3326 31.7692 29.5616 31.6885 29.0026 32.0006C28.1665 32.4675 27.8631 33.3897 28.425 34.2546C29.0915 35.2804 30.2058 35.3427 31.303 35.2308C32.3621 35.123 32.1331 34.2878 32.1451 33.6022C32.1519 33.2221 32.1125 32.8382 32.1521 32.4624C32.2305 31.7171 31.8076 31.6203 31.0089 31.6739Z" fill="#4E2EC7"/>
  </svg>
