<svg transform="scale(1)" version="1.1" id="Layer_1" xmlns="http://www.w3.org/2000/svg" xmlns:xlink="http://www.w3.org/1999/xlink" x="0px" y="0px" viewBox="0 0 500 500" xml:space="preserve" class="show_show__wrapper__graphic__5Waiy "><title>React</title><style type="text/css">
	.st0{fill:#128FFF;}
	.st1{fill:#FFFFFF;}
	.st2{fill:#111111;}
	.st3{opacity:0.42;}
</style><g id="character-2"><path class="st0" d="M231.3,283.6c0.4-8,1.4-17.4,9.4-20c5.7-1.9,12.9,0.9,17.8,5.3s7.7,10.2,10.1,15.9
		c10.4,24.6,14,50.3,13.2,75.1s-5.7,48.8-12,72.1c-2,7.4-5.1,15.7-13.3,17.4c-7,1.4-14.9-2.7-21.4-7c-10.1-6.7-19.6-14.5-28.2-23.1
		c-4.7-4.7-9.2-9.8-11.2-15.6c-3.8-10.8,3.2-13.3,8.8-19.6c7.1-8,10.3-21.4,13.8-31.4C225.7,330.4,230.2,307.1,231.3,283.6z"></path><path class="st1" d="M204.8,187.1c-3.8,2-8.2,2.3-12.2,0.8c-3.9-1.6-6.8-5.6-6.7-9.8s3.9-8.1,8.1-7.9c3.1,0.1,5.9,2.3,7.5,4.9
		c1.5,2.7,2.5,5.7,3,8.8"></path><path class="st2" d="M197.6,189.6c-1.8,0-3.6-0.3-5.2-1c-4.3-1.7-7.1-5.9-7.1-10.5c0.2-4.7,4.4-8.8,8.9-8.7
		c3.4,0.3,6.4,2.3,8.1,5.3c1.7,2.7,2.4,5.7,3.1,9c0.1,0.4-0.2,0.8-0.6,0.9s-0.8-0.2-0.9-0.6c-0.7-3.2-1.4-6.1-2.9-8.5
		c-1.7-2.7-4.3-4.5-6.9-4.6h-0.2c-3.6,0-6.9,3.4-7.1,7.2c-0.1,3.7,2.4,7.5,6.2,9.1c3.8,1.4,8,1.1,11.6-0.8c0.4-0.2,0.8,0,1,0.3
		c0.2,0.4,0,0.8-0.3,1C202.8,189,200.2,189.6,197.6,189.6z"></path><path class="st2" d="M302.1,104.9c5,4.7,7.3,12.1,7,19.1s-3,13.8-6.4,19.9c-8.5,15.2-21.9,27-38.1,33.3c-7,2.6-15.2,4.1-21.6,0
		c-8.3-5.3-9.8-17.2-8.4-27.3c2-15,8.6-34.7,22.5-41.7C269.3,102,290.4,94.1,302.1,104.9z"></path><path class="st1" d="M291,184c-1-5.7-5.6-10-11.3-10.6c0.5-3.8,0.6-7.5,0.5-11.3c-0.5-16.7-7.6-33.5-20.6-43.9
		c-10.9-8.7-37.6-17-48.1-3.3c-5.2,6.9-6.4,20.6-8.5,28.9c-2.9,11.2-5.1,22.5-6.6,33.9c-2.7,21.4-1.9,43.5,5.2,63.9
		c2.8,7.8,7.9,16.4,16.1,17.2c7.1,0.7,13.2-4.7,18.2-9.9c11.6-12,22.8-24.6,31.1-39.1c2.4-4.2,4.6-8.6,6.4-13.1
		c2.4,1.2,5.2,1.6,7.8,1.1C287.5,196.2,291.6,190.4,291,184z"></path><path class="st2" d="M219,259.4c-0.4,0-0.9,0-1.3-0.1c-9.5-0.9-14.6-11.5-16.8-17.7c-6.5-18.4-8.3-40.1-5.2-64.2
		c1.5-11.5,3.7-22.8,6.6-34c0.5-2.2,1-4.7,1.5-7.4c1.5-7.8,3.1-16.6,7.1-21.8c3.1-4.1,7.8-6.6,13.9-7.3c12-1.5,27.3,4.2,35.2,10.5
		c12.5,10,20.3,26.6,20.9,44.5c0.1,3.6,0,7.1-0.4,10.7c5.7,1,10.2,5.5,11.2,11.2l0,0c0.7,6.8-3.7,13-10.3,14.5
		c-2.6,0.5-5.2,0.2-7.6-0.8c-1.8,4.3-3.9,8.4-6.2,12.5c-8.8,15.3-20.7,28.4-31.2,39.2C231.3,254.6,225.6,259.4,219,259.4z
		 M228.9,108.2c-1.3,0-2.6,0.1-3.9,0.2c-5.7,0.7-10,3-12.9,6.7c-3.8,5-5.4,13.6-6.8,21.2c-0.5,2.7-1,5.3-1.6,7.5
		c-2.9,11.1-5.1,22.4-6.6,33.8c-3,23.9-1.3,45.3,5.2,63.5c2.1,5.9,6.8,15.9,15.5,16.7c6.6,0.6,12.4-4.3,17.6-9.7
		c10.4-10.7,22.2-23.8,31-38.9c2.4-4.2,4.5-8.5,6.4-13c0.1-0.2,0.2-0.3,0.4-0.4c0.2-0.1,0.4-0.1,0.6,0c2.3,1.2,4.8,1.5,7.3,1.1
		c5.8-1.4,9.7-6.9,9.1-12.9l0,0c-0.9-5.3-5.2-9.4-10.6-10c-0.2,0-0.4-0.1-0.5-0.3c-0.1-0.2-0.2-0.4-0.2-0.6
		c0.5-3.7,0.6-7.5,0.5-11.2c-0.6-17.4-8.2-33.7-20.4-43.4C252.3,113.2,239.8,108.2,228.9,108.2L228.9,108.2z"></path><path class="st2" d="M279.3,119.7c4.9,6.2,9.6,14.8,5.6,21.6c-2.4,4-7,5.9-11.5,7.3c-53,16.7-110.1-9.4-132.2-60.3
		c-4.1-9.4-10-27.7,0.3-35.2c8.4-6.1,23.4-1.5,32.4,0.6c26.6,6.1,51.6,17.9,73.3,34.5C259.2,97.4,269.9,108,279.3,119.7z"></path><path class="st2" d="M227,184.3c-0.1-2.1,0.7-4.7,2.8-5c1.6-0.1,3,1,3.5,2.5c0.4,1.5,0.5,3.1,0.2,4.6c-0.1,1-0.3,1.9-0.7,2.9
		c-0.4,0.9-1.2,1.6-2.2,1.7c-1.2,0-2.4-0.8-2.8-2c-0.4-1.2-0.5-2.4-0.4-3.6"></path><path class="st2" d="M209.2,180.4c-0.5-1.4,0.3-3,1.7-3.5c0.3-0.1,0.7-0.2,1-0.2c1.4,0.3,2.5,1.4,2.8,2.9c0.2,1.4,0.1,2.8-0.2,4.2
		c-0.1,1.1-0.5,2.2-1.1,3.1c-0.6,1-1.9,1.3-2.9,0.9c-1.1-0.6-1.3-2-1.2-3.2s0.2-2.5-0.4-3.5"></path><path class="st2" d="M232.6,238.3c2.1-0.4,4.5-0.7,5.8-2.4c0.8-1.3,1-2.9,0.3-4.3c-0.7-1.4-1.7-2.5-3.1-3.3
		c-5.7-3.5-13.2-1.8-16.8,4c-1.8,2.8-2.3,6.3-1.4,9.5c1.2,4.5,3.8,3,6.4,0.9C226.4,240.4,229.4,239,232.6,238.3z"></path><g id="multitask-hand-1"><path class="st1" d="M312,281.4c-7.2-4.6-14.5-10.9-15.5-19.4c-1.3-10.3,7-19.1,15-25.7c7.1-5.8,14.7-11.1,23.2-14.4
			c3.1-1.2,6.4-2.1,9.7-2.6c9.8-1.5,15.2,11.5,7.1,17.3l-0.2,0.1c3.7-3.1,9.9-2,13,1.8s3.3,9.3,1.3,13.7c-1.3,2.7-3.1,5-5.4,6.9
			c-2.7,2.2-4,5.7-3.3,9.2c1.8,9,4,25.3-2.4,29.2C345.8,302.7,319.1,286,312,281.4z"></path><path class="st2" d="M350.1,299.2c-10.1,0-27.8-10.2-38.5-17.1l0,0c-9.8-6.3-15-12.8-15.9-20c-1-8.5,4-17.1,15.3-26.4
			c6-4.9,14.1-11,23.4-14.5c3.2-1.2,6.5-2.1,9.9-2.6c4.8-0.8,9.4,1.9,11.1,6.4c1.3,3,1.1,6.5-0.7,9.3c0.9-0.2,1.9-0.2,2.9-0.1
			c2.8,0.3,5.4,1.6,7.3,3.8c3.1,3.7,3.6,9.6,1.4,14.5c-1.3,2.8-3.2,5.2-5.5,7.1c-2.5,2-3.7,5.3-3.1,8.5c1.9,9.4,4.1,25.9-2.8,30
			C353.4,298.8,351.7,299.2,350.1,299.2z M312.4,280.8c21,13.5,36.2,19.3,41.6,16c4.4-2.7,5.1-13.3,2.1-28.4
			c-0.7-3.7,0.7-7.5,3.6-9.9c2.2-1.8,4-4,5.1-6.6c2-4.4,1.5-9.6-1.2-12.9c-1.6-1.8-3.8-3-6.3-3.2c-1.7-0.2-3.5,0.2-5,1.1l-0.5,0.4
			l-0.1,0.1c-0.3,0.2-0.8,0.2-1-0.1c-0.2-0.3-0.2-0.7,0.1-1c0.2-0.2,0.4-0.4,0.7-0.5c3-2.4,4-6.5,2.5-10c-1.4-3.9-5.4-6.2-9.5-5.5
			c-3.3,0.5-6.5,1.4-9.6,2.6c-9.1,3.5-17.1,9.5-23,14.3c-10.9,8.9-15.7,17-14.7,25C298,268.7,303,274.9,312.4,280.8L312.4,280.8z"></path><path class="st0" d="M263.8,267.7c10.5,11,20.2,22.7,29,35.1c5.8,8.2,11.3,16.7,18.5,23.6s16.6,12.1,26.4,11.7
			c1.8,0,3.5-0.4,5-1.4c2.4-1.7,3-4.9,3.4-7.9c1.6-12.5,1.1-25.2-1.4-37.5c7,0,14-0.8,20.8-2.4c4.1,12.7,5.5,26,4.2,39.2
			c-1.3,12.8-6.5,26.7-18.2,31c-9.7,3.6-20.6-0.8-29.3-6.8c-14.2-9.9-25-24.1-35.5-38c-9.5-12.5-18.9-25.1-28.4-37.7
			c-2.3-3-12.5-13.1-8.5-16.1C254.6,257.1,261.2,268.5,263.8,267.7z"></path><g id="hand_pen"><path class="st1" d="M158.7,354.1c3.3,0.6,6.8,1,9.9,2.1s6.2,3.3,7.4,6.5c1.8,4.9-1.4,10.3-5.3,13.9c-6.9,6.4-16.1,9.8-25.1,12.8
				c-10,3.3-21.4,6.2-30.7,1.3c-5.7-3-9.6-8.7-11.8-14.7s-2.8-12.5-3.2-19c-0.6-9.3-2.1-20.4-0.4-29.6c1.4-7.4,8.7-6.4,13.9-2.8
				c7.3,5,12.9,12.5,20,17.7C141,347.9,149.5,352.3,158.7,354.1z"></path><path class="st2" d="M126.5,394.1c-4.1,0.1-8.1-0.9-11.8-2.7c-5.3-2.9-9.7-8.2-12.2-15.1c-2.3-6.3-2.9-13.2-3.3-19.2
				c-0.1-1.9-0.3-3.9-0.4-5.9c-0.6-7.7-1.3-16.4,0-23.8c0.7-3.5,2.5-5,4-5.6c3.5-1.5,8,0.2,11,2.3c3.8,2.8,7.4,5.9,10.6,9.3
				c2.9,3,6.1,5.9,9.4,8.5c8.3,6.1,16.7,10,24.9,11.6l0,0c1,0.2,1.9,0.3,2.9,0.5c2.5,0.3,4.9,0.9,7.2,1.6c3.9,1.4,6.7,3.9,7.9,7
				c2.4,6.7-3.6,12.9-5.5,14.7c-7.1,6.5-16.4,10-25.3,13C139.5,392.3,132.8,394.1,126.5,394.1z M105.7,322.7c-0.8,0-1.6,0.1-2.3,0.4
				c-1.6,0.7-2.7,2.2-3.1,4.5c-1.3,7.2-0.7,15.5,0,23.5c0.2,2,0.3,4,0.4,5.9c0.4,5.9,1,12.6,3.2,18.8c2.4,6.5,6.5,11.6,11.5,14.3
				c8.8,4.7,19.6,2.1,30.1-1.4c8.8-2.9,18-6.3,24.8-12.7c3.6-3.3,6.7-8.5,5.1-13.1c-1-2.6-3.5-4.8-7-6.1c-2.3-0.7-4.6-1.3-6.9-1.6
				c-1-0.2-1.9-0.3-2.9-0.5l0,0c-8.4-1.6-17-5.6-25.5-11.8c-3.4-2.6-6.6-5.5-9.6-8.6c-3.2-3.3-6.7-6.4-10.4-9.1
				C110.9,323.7,108.3,322.8,105.7,322.7L105.7,322.7z"></path><path class="st1" d="M146.6,372.6c-4.4,4-8,9-9.6,14.8s-0.8,12.3,2.9,17s10.5,6.9,16,4.5c4.4-1.9,7.2-6.3,8.9-10.7
				s2.6-9.2,4.4-13.6c1.4-3.4,3.4-6.4,5-9.7s2.7-6.9,2.3-10.5c-0.8-7.7-8.8-11.3-14.6-5.7c-1.8,1.8-2.7,4.2-4.7,6
				C154,367.5,150,369.6,146.6,372.6z"></path><path class="st2" d="M151.2,410.6c-4.6,0-8.9-2.2-11.8-5.8c-3.6-4.5-4.8-11.3-3.1-17.6c1.4-5.4,4.8-10.5,9.8-15.1l0,0
				c1.8-1.6,3.6-3,5.6-4.2c1.8-1.2,3.5-2.4,5.1-3.8c0.9-0.9,1.7-1.9,2.4-3c0.7-1.1,1.4-2.1,2.3-3c2.5-2.6,6.2-3.5,9.6-2.4
				c3.6,1.4,6,4.8,6.2,8.6c0.3,3.2-0.4,6.8-2.4,10.9c-0.7,1.4-1.4,2.8-2.2,4.2c-1,1.8-1.9,3.6-2.8,5.5c-1,2.4-1.8,4.8-2.4,7.2
				c-0.6,2.1-1.2,4.2-2,6.3c-1.5,3.9-4.3,9-9.3,11.1C154.7,410.2,153,410.6,151.2,410.6z M147.1,373.2c-4.9,4.5-8,9.3-9.4,14.4
				c-1.6,5.9-0.5,12.1,2.8,16.3c3.7,4.6,10.1,6.5,15.1,4.3c4.5-2,7.1-6.7,8.5-10.3c0.8-2,1.4-4.1,2-6.2c0.7-2.5,1.5-5,2.5-7.4
				c0.8-1.9,1.9-3.8,2.8-5.6c0.7-1.3,1.5-2.7,2.1-4.1c1.8-3.9,2.6-7.2,2.3-10.1c-0.2-3.3-2.2-6.1-5.2-7.3c-2.7-1-5.6-0.2-8,2.1
				c-0.8,0.8-1.5,1.7-2.1,2.7c-0.7,1.2-1.6,2.3-2.6,3.3c-1.7,1.4-3.4,2.7-5.3,4C150.7,370.3,148.9,371.7,147.1,373.2L147.1,373.2z"></path><path class="st1" d="M146.4,373.4c-0.1,0-0.2,0-0.3-0.1c-0.2-0.2-0.2-0.5,0-0.7c0,0,0,0,0,0c4.2-4.7,11.7-8.8,18.7-7.1
				c0.3,0.1,0.4,0.3,0.4,0.6c-0.1,0.3-0.3,0.4-0.6,0.4c-6.6-1.5-13.6,2.3-17.7,6.8C146.7,373.3,146.6,373.4,146.4,373.4z"></path></g><path class="st0" d="M223.6,293.8c-13.8,30-37.5,53.8-63.6,63.8l5.7,24.6c17.9-6.8,34.3-21.2,47-39.2
			c12.3-17.3,21.5-37.9,27.7-58.9c1.8-6.1,5.7-19.8-3.4-16.1C229.8,270.9,227,286.6,223.6,293.8z"></path></g><g id="character"><path class="st1" d="M193.3,171.8c1.6,8.2,5.9,15.7,10.4,22.8c5.3,8.3,11.5,16.4,20.3,21.4c7.6,4.3,16.6,5.8,25.4,6.1
			c10.6,0.5,21.2-1.2,31.2-4.9c9.8-3.9,18.6-10.2,24.3-18.6c8-11.9,9.4-26.9,6.8-40.8c-1.4-8.2-4.4-16-8.8-23.1
			c-11.4-17.8-34.5-28.3-56.5-25.8c-11.6,1.4-22.6,6.2-31.6,13.7c-9,7.6-13.3,16.5-17.8,26.8C193.6,156.9,191.6,163.5,193.3,171.8z"></path><path class="st2" d="M252.6,222.9c-1.1,0-2.1,0-3.2-0.1c-10.5-0.4-18.9-2.4-25.7-6.2c-9.2-5.2-15.5-13.8-20.6-21.6
			c-4.2-6.6-8.8-14.5-10.5-23.1l0,0c-1.7-8.3,0.2-14.9,3.7-22.9c4.9-11.1,9.1-19.6,18-27c9.1-7.6,20.2-12.5,32-13.9
			c22.2-2.5,45.7,8.2,57.2,26.1c4.5,7.1,7.5,15.1,8.9,23.4c2.9,15.8,0.5,30.4-6.9,41.4c-5.5,8.1-14.2,14.8-24.6,18.9
			C271.9,221.3,262.3,223,252.6,222.9z M252.8,109.3c-2.1,0-4.2,0.1-6.3,0.3c-11.5,1.4-22.3,6.1-31.2,13.6
			c-8.6,7.3-12.7,15.6-17.6,26.5c-3.4,7.7-5.2,14-3.6,22l0,0c1.7,8.3,6.2,16.1,10.3,22.5c4.9,7.7,11.1,16.1,20,21.1
			c6.6,3.7,14.8,5.7,25.1,6c10.5,0.5,21-1.1,30.9-4.8c10.1-4,18.6-10.5,23.9-18.4c7.2-10.6,9.5-24.9,6.7-40.2
			c-1.4-8.1-4.3-15.9-8.7-22.8C292.1,119.4,272.4,109.3,252.8,109.3L252.8,109.3z"></path><path class="st2" d="M240.6,160.6c-0.3-3.6,1.3-8.1,5.1-8.6c2.8-0.4,5.5,1.8,6.5,4.3s0.6,5.3,0.3,8c-0.1,1.7-0.5,3.4-1.2,4.9
			c-0.8,1.6-2.3,2.8-4.1,3c-2.2,0-4.3-1.4-5.1-3.4c-0.7-2-0.9-4.1-0.6-6.2"></path><path class="st2" d="M207.7,153.9c-1.4-2.9,1.6-6.6,4.9-6.3c2.6,0.5,4.6,2.4,5.1,5c0.6,2.4,0.1,4.9-0.4,7.3
			c-0.2,1.9-1,3.8-2.1,5.4c-1.2,1.5-3.6,2.4-5.4,1.6s-2.4-3.4-2.3-5.5s0.4-4.3-0.7-6.1"></path><g class="st3"><path class="st1" d="M194.8,167.6c1.6,8.5,5.7,16.3,10.2,23.8c5.2,8.6,11.2,17.1,19.8,22.3c7.4,4.4,16.2,6.1,24.8,6.4
				c10.4,0.5,20.8-1.2,30.4-5.1c9.7-3.9,17.9-10.7,23.7-19.4c7.9-12.4,9.2-28.1,6.6-42.5c-1.4-8.5-4.3-16.6-8.6-24.1
				c-11.1-18.5-33.7-29.5-55.1-26.9c-11.5,1.5-22.3,6.5-30.8,14.3c-8.8,7.9-12.9,17.2-17.4,27.9C195.1,152.1,193.1,159,194.8,167.6z
				"></path><path class="st2" d="M252.6,220.8c-1,0-2.1,0-3.1-0.1c-10.3-0.4-18.5-2.5-25.1-6.5c-9-5.4-15.2-14.4-20.1-22.6
				c-4.1-6.9-8.6-15.1-10.2-24l0,0c-1.6-8.7,0.2-15.5,3.6-23.8c4.8-11.6,8.9-20.4,17.6-28.2c8.7-7.9,19.6-12.9,31.2-14.5
				c21.6-2.6,44.6,8.6,55.9,27.2c4.4,7.5,7.3,15.7,8.7,24.3c2.8,16.4,0.4,31.7-6.8,43c-5.4,8.5-13.9,15.4-24,19.7
				C271.5,219.1,262.1,220.9,252.6,220.8z M195.5,167.4c1.6,8.7,6,16.8,10.1,23.5c4.8,8,10.9,16.8,19.5,22.1
				c6.4,3.9,14.4,5.9,24.4,6.3c10.3,0.5,20.6-1.2,30.1-5.1c9.5-3.9,17.7-10.5,23.4-19.1c7-11,9.3-25.9,6.5-42
				c-1.3-8.4-4.2-16.5-8.5-23.8c-11-18.2-33.3-29.1-54.4-26.5c-11.3,1.5-21.9,6.4-30.4,14.1c-8.4,7.6-12.4,16.2-17.2,27.6
				C195.7,152.5,194,159.1,195.5,167.4L195.5,167.4z"></path></g><path class="st1" d="M272.8,100.3c-27.1-4.2-56.7,5.2-74.1,26.4s-19.9,54.4-3.4,76.3c10.7,14.3,28,22.8,45.6,25.7
			c11.1,1.7,22.4,1.8,33.5,0.4c5.2-0.6,11.4-2.9,16.6-2.7c6,0.2,7,2.6,11.1,7.6c16.4,19.6,32.8,39.2,49.3,58.8
			c3.6,4.4,7.5,8.9,12.9,10.8s12.5,0.2,14.4-5.1c2.1-5.8-2.6-11.7-7-16.1l-66.4-66.1c13.1-12.9,22.1-30.2,23.6-48.5
			s-4.9-37.4-18.2-50.1C300.5,108.1,286.8,102.5,272.8,100.3z M310.9,166.9c-0.4,23.1-16.8,45-38.8,51.9s-47.9-1.4-61.8-19.8
			c-13-17.2-16.9-49.3-0.6-66s41-26.9,64-19.1C295.6,121.3,311.3,143.8,310.9,166.9L310.9,166.9z"></path><path class="st2" d="M368.8,305.2c-1.6,0-3.2-0.3-4.7-0.8c-5.7-2.1-9.8-7-13.2-11l-16.3-19.4c-11-13.1-22-26.2-33-39.4
			c-0.6-0.7-1.1-1.4-1.6-2c-2.9-3.6-4.2-5.2-9-5.3c-3.3,0.1-6.6,0.6-9.8,1.4c-2.2,0.5-4.4,1-6.6,1.3c-11.2,1.5-22.6,1.3-33.8-0.4
			c-19.3-3.2-36.1-12.7-46.1-26c-16.2-21.7-14.8-54.9,3.4-77.3c16.8-20.6,46.2-31.1,74.8-26.7c10.7,1.7,26,6.1,38.2,17.7
			c13.1,12.5,20,31.4,18.5,50.7c-1.4,17.4-9.9,35-23.2,48.4l65.9,65.6c4.2,4.2,9.5,10.5,7.2,16.9
			C377.9,303.1,373.3,305.2,368.8,305.2z M290.6,225.7h0.5c5.5,0.2,7.1,2.2,10.1,5.9c0.5,0.6,1,1.2,1.6,2l33,39.4l16.3,19.4
			c3.4,4.1,7.3,8.7,12.5,10.6c4.9,1.8,11.6,0.3,13.5-4.7c2-5.5-2.9-11.4-6.9-15.3l-66.4-66.1c-0.1-0.1-0.2-0.3-0.2-0.5
			c0-0.2,0.1-0.4,0.2-0.5c13.4-13.2,21.9-30.7,23.3-48c1.5-18.8-5.2-37.3-18-49.5c-11.9-11.3-26.9-15.6-37.4-17.2l0,0
			c-28.1-4.3-56.9,6-73.4,26.2c-17.8,21.8-19.2,54.3-3.4,75.4c9.8,13,26.2,22.3,45.1,25.4c11,1.7,22.3,1.8,33.3,0.4
			c2.2-0.3,4.3-0.7,6.5-1.2C284,226.4,287.3,225.9,290.6,225.7z M256.1,222c-17.7,0-35.6-8.3-46.3-22.6c-13.6-18-16.7-50.5-0.5-67
			c8.3-8.6,18.5-15,29.8-18.9c11.9-4,24-4.1,34.9-0.4c22.2,7.6,38.1,30.1,37.7,53.7l0,0c-0.4,23.4-16.9,45.5-39.3,52.7
			C267.1,221.2,261.6,222,256.1,222z M257.4,112.1c-14.4,0-31.5,5.7-47.1,21.5s-12.6,47.4,0.6,65c13.7,18.2,39.3,26.4,61,19.6
			s37.9-28.5,38.2-51.2s-15.1-44.9-36.7-52.3C268.3,112.9,262.8,112,257.4,112.1L257.4,112.1z M310.9,166.9L310.9,166.9z"></path><path class="st1" d="M285.3,118.7l-0.4,0.6c15.8,10.2,26.3,28.7,26,47.5c-0.3,10.7-3.7,21-9.7,29.8c3.5,0.8,7.1,1.4,10.7,1.6
			c2.4,0.2,4.9,0.1,7.3,0.1c5.4-9.3,8.7-19.7,9.7-30.5c1.5-18.3-4.9-37.4-18.2-50.1c-5.2-4.9-11.3-8.9-17.9-11.7
			C291.2,110.5,288,114.7,285.3,118.7z"></path><path class="st2" d="M315.5,199.1c-1.2,0-2.4,0-3.6-0.1c-3.7-0.3-7.3-0.8-10.9-1.6c-0.2-0.1-0.4-0.2-0.5-0.5
			c-0.1-0.2-0.1-0.5,0.1-0.7c6-8.6,9.3-18.9,9.6-29.4c0.3-18.3-9.8-36.7-25.7-46.9c-0.2-0.1-0.3-0.3-0.3-0.5c0-0.2,0-0.4,0.1-0.6
			l0.2-0.2l0.2-0.4l0,0l1.5-2.2c2.3-3.3,4.7-6.8,5.9-10.3c0.1-0.2,0.2-0.4,0.4-0.4c0.2-0.1,0.4-0.1,0.6,0
			c6.7,2.9,12.8,6.9,18.1,11.9c13.1,12.5,20,31.4,18.5,50.7c-1,10.9-4.3,21.4-9.8,30.8c-0.1,0.2-0.4,0.4-0.6,0.4h-0.9
			C317.5,199.1,316.5,199.1,315.5,199.1z M302.4,196.1c3.2,0.7,6.4,1.1,9.6,1.4c2.1,0.2,4.3,0.1,6.4,0.1h0.4
			c5.2-9.1,8.4-19.3,9.4-29.8c1.5-18.8-5.2-37.3-18-49.5c-5-4.7-10.7-8.5-17-11.2c-1.6,3.5-3.5,6.8-5.8,9.9c-0.5,0.7-1,1.4-1.5,2.1
			c16,10.5,26,29.2,25.7,47.8C311.4,177.3,308.2,187.5,302.4,196.1L302.4,196.1z"></path><path class="st2" d="M371.5,299.4c-0.2,0-0.4-0.1-0.5-0.4c-0.8-2.5-2.6-4.5-4.2-6.3l-67.7-75.4c-0.1-0.1-0.1-0.2-0.1-0.4
			c0-0.1,0.1-0.3,0.2-0.3c19.9-17,27.5-47.1,18.1-71.6c-9.2-24-34.3-41.2-60-41.2h-1.3c-0.3,0-0.5-0.2-0.5-0.5c0,0,0,0,0,0
			c0-0.3,0.2-0.5,0.5-0.5c0,0,0,0,0,0c26.6-0.6,52.8,17,62.3,41.8c9.5,24.7,1.9,55-18,72.4l67.4,75c1.7,1.9,3.6,4,4.5,6.7
			c0.1,0.3-0.1,0.5-0.3,0.6c0,0,0,0,0,0L371.5,299.4z"></path></g><path class="st1" d="M316.8,236.9c-1.8,3.4-3,7.8,0.1,11.3c2,2.1,4.8,3.4,7.7,3.5c2.6,0.1,5.2-0.4,7.6-1.5c5-2.1,9.7-5,13.8-8.5
		c3.5-2.8,7-5.9,8.2-10.2c2.2-7.8-4.6-20.1-14.9-17.6S320.8,229.2,316.8,236.9z"></path><path class="st2" d="M325.3,252.5c-0.3,0-0.5,0-0.8,0c-3.1-0.1-6.1-1.5-8.2-3.8c-2.7-3.1-2.8-7.3-0.2-12.2l0,0
		c3.2-6.1,11.9-20.5,23-23.3c4.2-1.1,8.6,0.3,11.5,3.5c3.8,4,5.6,10.3,4.3,15c-1.3,4.6-5,7.9-8.4,10.6c-4.2,3.5-8.9,6.4-14,8.6
		C330.2,251.9,327.8,252.5,325.3,252.5z M317.4,237.3c-2.3,4.4-2.3,7.9,0,10.5c1.9,2,4.5,3.1,7.2,3.2c2.5,0.1,5-0.4,7.3-1.4
		c4.9-2.1,9.5-4.9,13.6-8.4c3.2-2.6,6.7-5.6,7.9-9.8s-0.4-10-3.9-13.6c-2.5-2.8-6.3-4-10-3.1C329,217.4,320.5,231.4,317.4,237.3
		L317.4,237.3z"></path><path class="st1" d="M333.4,252.5c-1.8,3.4-3,7.8,0.1,11.3c2,2.1,4.8,3.4,7.7,3.5c2.6,0.1,5.2-0.4,7.6-1.5c5-2.1,9.7-5,13.8-8.5
		c3.5-2.8,7-5.9,8.2-10.2c2.2-7.8-4.6-20.1-14.9-17.6S337.5,244.7,333.4,252.5z"></path><path class="st2" d="M341.9,268.1h-0.8c-3.1-0.1-6.1-1.5-8.2-3.7c-2.7-3.1-2.8-7.3-0.2-12.2l0,0c3.2-6.1,11.9-20.5,23-23.3
		c4.2-1.1,8.6,0.3,11.5,3.5c3.8,4,5.6,10.3,4.3,15s-5,7.9-8.4,10.6c-4.2,3.5-8.9,6.4-14,8.6C346.8,267.5,344.4,268,341.9,268.1z
		 M334,252.8c-2.3,4.3-2.3,7.9,0,10.5c1.9,2,4.5,3.1,7.2,3.2c2.5,0.1,5-0.4,7.3-1.5c4.9-2.1,9.5-4.9,13.6-8.4
		c3.2-2.6,6.8-5.6,7.9-9.8s-0.4-9.9-3.9-13.6c-2.5-2.8-6.3-4-10-3.1C345.5,232.9,337.1,246.9,334,252.8L334,252.8z"></path></g><g id="_4"><path class="st2" d="M305.6,306.2c-6.1,8.2-12.4,19.1-7.7,28.3c4.1,8,14.2,9.8,23,10.4c27.9,1.8,55.9,1,83.6-2.3
		c-2.4,21.4-3.8,43-4,64.6c-0.1,6.5,0,13.2,2.1,19.6s6.7,12.6,13.1,14.9c8,3,16.9-0.9,21.8-7.3s6.7-14.9,7.7-23.2
		c3.2-24.4,1.7-49.2,0.3-73.6c7.6-4.4,17.2-4.3,26-6.7s17.7-9.7,15.8-18.4c-1.6-7.2-10.1-11.3-17.8-12s-15.2,0.9-22.6,0
		c1.4-5.8,2.8-11.7,2.1-17.6s-4-11.8-9.5-14.2c-7.5-3.2-16.6,1.1-21.2,7.7s-5.8,14.7-6.9,22.5l-54.8,9.4c-3.9,0.7-9.3,0.2-9.8-3.8
		c-0.2-1.9,1-3.6,2.1-5.1c32.1-41.7,74.8-77.4,103.2-124.4c2.7-4.5,5.4-9.2,6.1-14.3s-0.7-10.5-5-13.3c-6.8-4.5-16.7-0.4-23.6,4.6
		c-10.4,7.5-18.9,17.2-25,28.5c-4.1,7.7-50.9,66.3-69.1,88.1C325.2,281,315.2,293.5,305.6,306.2z"></path></g><g id="_4-with-fingers"><path class="st2" d="M22.1,300.4c-6.1,8.2-12.4,19.1-7.7,28.3c4.1,8,14.2,9.8,23,10.4c27.9,1.8,55.9,1,83.6-2.3
		c-2.4,21.4-3.8,43-4,64.6c-0.1,6.5,0,13.2,2.1,19.6s6.7,12.6,13.1,14.9c8,3,16.9-0.9,21.8-7.3s6.7-14.9,7.7-23.2
		c3.2-24.4,1.7-49.2,0.3-73.6c7.6-4.4,17.2-4.3,26-6.7s17.7-9.7,15.8-18.4c-1.6-7.2-10.1-11.3-17.8-12s-15.2,0.9-22.6,0
		c1.4-5.8,2.8-11.7,2.1-17.6s-4-11.8-9.5-14.2c-7.5-3.2-16.6,1.1-21.2,7.7s-5.8,14.7-7,22.5l-54.8,9.4c-3.9,0.7-9.3,0.2-9.8-3.8
		c-0.2-1.9,1-3.6,2.1-5.1C97.3,252,140,216.2,168.5,169.2c2.7-4.5,5.4-9.2,6.1-14.3s-0.7-10.5-5-13.3c-6.8-4.5-16.7-0.4-23.6,4.6
		c-10.4,7.5-18.9,17.2-25,28.5c-4,7.7-50.8,66.3-69,88.1C41.6,275.1,31.6,287.6,22.1,300.4z"></path><path class="st1" d="M108.1,411.6c2.5,1.6,5.3,2.6,8.3,2.9c2.7,0.4,5.4,0.3,8-0.3c2.6-0.7,4.9-2.4,6.3-4.8
		c-0.3,0.5-19.1-9.5-21.7-9.8C101,398.4,103.5,408.5,108.1,411.6z"></path><path class="st2" d="M119.9,415.5c-1.2,0-2.4-0.1-3.7-0.3c-3.1-0.3-6-1.3-8.6-3l0,0c-3.4-2.3-5.5-7.7-4.2-10.9
		c0.5-1.2,1.8-3.1,5.7-2.5c1.4,0.2,6.2,2.5,13,5.9c3.6,1.7,7.6,3.7,8.5,4c0.1,0,0.3,0,0.4,0.1c0.4,0.2,0.5,0.6,0.3,1c0,0,0,0,0,0
		l-0.1,0.1c-1.5,2.5-3.9,4.3-6.7,5C123.1,415.3,121.5,415.5,119.9,415.5z M108.5,411c2.4,1.5,5.2,2.5,8,2.7c2.6,0.4,5.2,0.3,7.7-0.3
		c2.1-0.6,4-1.8,5.3-3.6c-1.3-0.5-3.6-1.7-8-3.8c-4.8-2.3-11.3-5.5-12.6-5.7c-2.2-0.3-3.5,0.2-4.1,1.6
		C103.9,404.4,105.8,409.1,108.5,411L108.5,411z M130,409L130,409L130,409z"></path><path class="st1" d="M101,401.7c2.5,1.8,5.3,3.2,8.2,4c4,1.5,8.2,2.2,12.5,2.2c1.6,0,3.3-0.4,4.7-1.3c1.4-0.9,2.1-2.6,1.8-4.2
		c-0.5-1.2-1.3-2.2-2.4-2.9c-5.3-4.1-15.4-11.9-22.5-12C95.3,387.4,96.3,397.8,101,401.7z"></path><path class="st2" d="M120.8,408.7c-4-0.1-8-0.9-11.8-2.3c-3.1-0.9-5.9-2.3-8.5-4.2l0,0c-3.2-2.6-4.8-7.9-3.5-11.5
		c1-2.6,3.2-4,6.3-4c7.6,0.1,18.3,8.5,22.9,12.1c1.2,0.8,2.2,2,2.7,3.3c0.4,1.9-0.5,3.9-2.1,5c-1.5,0.9-3.2,1.4-5,1.4L120.8,408.7z
		 M101.5,401.1c2.4,1.8,5.1,3.1,8,3.9c3.9,1.5,8.1,2.2,12.2,2.2c1.5,0,3-0.4,4.3-1.1c1.1-0.7,1.7-2.1,1.5-3.4
		c-0.4-1-1.2-1.9-2.1-2.5c-4.5-3.5-15-11.8-22-11.8c-2.4,0-4.2,1-4.9,3C97.5,394.3,98.9,398.9,101.5,401.1L101.5,401.1z"></path><path class="st1" d="M93.5,374.9c-0.8,3.9,1.1,8,3.9,10.8s6.4,4.7,10,6.4l13.7,6.8c1.7,1,3.5,1.6,5.3,1.9c1.9,0.3,3.9-0.4,5.1-1.9
		c1.4-1.9,0.8-4.7-0.7-6.6s-3.6-3-5.7-4.2c-7.6-4.5-12.6-10.5-18.7-16.6C101.9,367.2,95,367.6,93.5,374.9z"></path><path class="st2" d="M127,401.6c-0.3,0-0.5,0-0.8,0c-2-0.3-3.9-1-5.6-2l-13.6-6.9c-3.4-1.7-7.3-3.6-10.2-6.6
		c-3.3-3.4-4.8-7.6-4.1-11.5l0,0c0.7-3.3,2.5-5.6,5.2-6.4c3.2-0.8,6.6,0.2,8.9,2.7c1.2,1.2,2.3,2.4,3.5,3.6
		c4.7,4.8,9.1,9.4,15.1,12.9l0.7,0.4c2,1,3.7,2.4,5.2,4c1.6,2,2.4,5.2,0.8,7.5C130.8,400.9,128.9,401.7,127,401.6z M94.2,375
		c-0.7,3.3,0.7,7.1,3.7,10.1c2.7,2.8,6.3,4.6,9.8,6.3l13.6,6.8c1.6,0.9,3.3,1.5,5.1,1.9c1.6,0.3,3.3-0.3,4.4-1.6
		c1.2-1.7,0.6-4.1-0.7-5.7c-1.4-1.5-3-2.7-4.8-3.6l-0.7-0.4c-6.2-3.7-10.7-8.3-15.4-13.2c-1.1-1.2-2.3-2.4-3.5-3.5
		c-2.1-2.1-5-3-7.4-2.3C96.2,370.3,94.8,372.2,94.2,375L94.2,375z"></path><path class="st1" d="M96.4,345.2c-2.2,8,0.7,16.5,4.7,23.8c6.1,11.1,14.8,20.5,25.4,27.5c3.2,2.1,7.6,3.9,10.5,1.4s2-6.7,1-10.2
		c-3.5-11.9-7-23.9-10.5-35.8c-1.9-6.4-6.4-17-13.7-19C106.2,331,98.2,338.5,96.4,345.2z"></path><path class="st2" d="M133.6,399.8c-2.8,0-5.7-1.5-7.5-2.8c-10.6-7-19.4-16.5-25.6-27.7c-5.1-9.2-6.7-17.4-4.8-24.3
		c2-7.5,10.6-14.8,18.3-12.9c8.5,2.2,13,15.5,14.2,19.5l10.5,35.8c1,3.4,2,8.3-1.2,11C136.4,399.4,135,399.9,133.6,399.8z
		 M111.4,333.4c-5.5,0-12.4,4.7-14.4,12c-1.8,6.6-0.2,14.4,4.7,23.2c6.1,11,14.7,20.3,25.1,27.2c1.9,1.3,6.7,4,9.6,1.5
		c2.5-2.1,1.6-6.4,0.7-9.4L126.7,352c-1.1-3.8-5.4-16.4-13.2-18.4C112.8,333.4,112.2,333.4,111.4,333.4z M96.4,345.2L96.4,345.2z"></path></g></svg>